<svg id="Layer_1" data-name="Layer 1" xmlns="http://www.w3.org/2000/svg" viewBox="0 0 100 100"><defs><style>.cls-1{fill:none;}.cls-2{fill:#333;}</style></defs><title>TMAdd</title><rect class="cls-1" x="5" y="5" width="90" height="90"/><path id="add_sq" data-name="add sq" class="cls-2" d="M5,50A45,45,0,1,1,50,95,45,45,0,0,1,5,50Zm11.25,0A33.75,33.75,0,1,0,50,16.25,33.75,33.75,0,0,0,16.25,50ZM44.38,66.88V55.63H33.13a5.63,5.63,0,1,1,0-11.25H44.38V33.13a5.63,5.63,0,1,1,11.25,0V44.38H66.88a5.63,5.63,0,0,1,0,11.25H55.63V66.88a5.63,5.63,0,0,1-11.25,0Z"/></svg>