<svg id="Layer_1" data-name="Layer 1" xmlns="http://www.w3.org/2000/svg" viewBox="0 0 100 100"><defs><style>.cls-1{fill:#333;}.cls-2{fill:none;}</style></defs><title>TMAlert</title><path id="exclamation_tr" data-name="exclamation tr" class="cls-1" d="M16.25,89.8A11.25,11.25,0,0,1,6.46,84,11.48,11.48,0,0,1,6.6,72.58L40.35,15.73a11.2,11.2,0,0,1,19.3,0L93.4,72.58A11.48,11.48,0,0,1,93.54,84a11.24,11.24,0,0,1-9.78,5.77Zm0-11.37H83.76L50,21.58ZM44.38,67.06A5.63,5.63,0,1,1,50,72.74,5.68,5.68,0,0,1,44.38,67.06Zm0-17.06V44.32A5.63,5.63,0,1,1,55.63,44v6a5.63,5.63,0,1,1-11.25.36A2.16,2.16,0,0,1,44.38,50Z"/><rect class="cls-2" x="5" y="5" width="90" height="90"/></svg>