<svg id="Layer_1" data-name="Layer 1" xmlns="http://www.w3.org/2000/svg" viewBox="0 0 100 100"><defs><style>.cls-1{fill:#333;}.cls-2{fill:none;}</style></defs><title>TMdetails</title><g id="Group_4579" data-name="Group 4579"><g id="Group_4577" data-name="Group 4577"><path id="menu_1" data-name="menu 1" class="cls-1" d="M33.12,78.13a5.63,5.63,0,0,1,0-11.25H89.37a5.63,5.63,0,1,1,0,11.25Zm0-22.5a5.63,5.63,0,0,1,0-11.26H89.37a5.63,5.63,0,0,1,0,11.26Zm0-22.51a5.63,5.63,0,0,1,0-11.25H89.37a5.63,5.63,0,1,1,0,11.25Z"/><path id="menu_1-2" data-name="menu 1-2" class="cls-1" d="M5.94,78.13c-.52,0-.94-2.54-.94-5.63s.42-5.62.94-5.62h9.37c.52,0,.94,2.53.94,5.62s-.42,5.63-.94,5.63Zm0-22.5C5.42,55.63,5,53.09,5,50s.42-5.63.94-5.63h9.37c.52,0,.94,2.54.94,5.63s-.42,5.63-.94,5.63Zm0-22.51c-.52,0-.94-2.53-.94-5.62s.42-5.63.94-5.63h9.37c.52,0,.94,2.54.94,5.63s-.42,5.62-.94,5.62Z"/></g></g><rect class="cls-2" x="5" y="5" width="90" height="90"/></svg>