<svg id="Layer_1" data-name="Layer 1" xmlns="http://www.w3.org/2000/svg" viewBox="0 0 100 100"><defs><style>.cls-1{fill:#333;}.cls-2{fill:none;}</style></defs><title>TMdelay</title><path id="time_1_exp" data-name="time 1 exp" class="cls-1" d="M83.74,89.36A5.63,5.63,0,1,1,89.37,95,5.64,5.64,0,0,1,83.74,89.36ZM5.92,41a45,45,0,0,1,87.23-3.68,5.62,5.62,0,0,1-4,6.9,5.64,5.64,0,0,1-6.84-3.66A33.69,33.69,0,0,0,43.88,16.79,33,33,0,0,0,16.5,46.1,33.78,33.78,0,0,0,46.19,83.53a34.8,34.8,0,0,0,3.82.22A33.37,33.37,0,0,0,64.6,80.42,5.57,5.57,0,0,1,72,83.18a5.81,5.81,0,0,1,.5,2.36,5.52,5.52,0,0,1-3,5A44.88,44.88,0,0,1,5,49.93,44.43,44.43,0,0,1,5.92,41ZM83.74,72.48V61.21a5.63,5.63,0,1,1,11.26,0V72.48a5.63,5.63,0,1,1-11.26,0ZM50,55.58A5.63,5.63,0,0,1,44.38,50V33.06a5.63,5.63,0,1,1,11.26,0V44.32H66.9a5.63,5.63,0,0,1,0,11.26Z"/><rect class="cls-2" x="5" y="5" width="90" height="90"/></svg>