<svg id="Layer_1" data-name="Layer 1" xmlns="http://www.w3.org/2000/svg" viewBox="0 0 100 100"><defs><style>.cls-1{fill:#333;}.cls-2{fill:none;}</style></defs><title>TMDriver</title><path id="profile_cr" data-name="profile cr" class="cls-1" d="M50,5A45.06,45.06,0,0,0,26.27,88.29l.08,0h0l0,0A45,45,0,1,0,50,5Zm0,78.86a33.3,33.3,0,0,1-17.69-5,28.17,28.17,0,0,1,35.38,0A33.3,33.3,0,0,1,50,83.82ZM38.75,50A11.27,11.27,0,1,1,50,61.29,11.26,11.26,0,0,1,38.75,50ZM76.1,71.39A11.64,11.64,0,0,0,74.75,70a39.77,39.77,0,0,0-8.13-4.9,22.53,22.53,0,1,0-33.24,0A40,40,0,0,0,25.25,70a11.64,11.64,0,0,0-1.35,1.37,33.79,33.79,0,1,1,52.17,0Z"/><rect class="cls-2" x="5" y="5" width="90" height="90"/></svg>