<svg id="Layer_1" data-name="Layer 1" xmlns="http://www.w3.org/2000/svg" viewBox="0 0 100 100"><defs><style>.cls-1{fill:#333;}.cls-2{fill:none;}</style></defs><title>TMentry</title><path id="down_cr" data-name="down cr" class="cls-1" d="M50,5A45,45,0,1,0,95,50,45,45,0,0,0,50,5Zm0,11.25A33.75,33.75,0,1,1,16.25,50,33.75,33.75,0,0,1,50,16.25ZM72.07,47.86h0A5.6,5.6,0,0,0,71,46.21c0-.05-.06-.12-.12-.17L59.58,34.79a5.62,5.62,0,0,0-7.93,7.94l1.65,1.65H33.13a5.63,5.63,0,1,0,0,11.25H53.3l-1.65,1.64a5.63,5.63,0,0,0,8,7.95L70.86,54a5.72,5.72,0,0,0,1.64-4,5.6,5.6,0,0,0-.43-2.14Z"/><rect class="cls-2" x="5" y="5" width="90" height="90"/></svg>