<svg id="Layer_1" data-name="Layer 1" xmlns="http://www.w3.org/2000/svg" viewBox="0 0 100 100"><defs><style>.cls-1{fill:#333;}.cls-2{fill:none;}</style></defs><title>TMExit</title><path id="down_cr-2" data-name="down cr-2" class="cls-1" d="M50,5A45,45,0,1,1,5,50,45,45,0,0,1,50,5Zm0,11.25A33.75,33.75,0,1,0,83.75,50,33.75,33.75,0,0,0,50,16.25ZM27.93,47.86h0a5.6,5.6,0,0,1,1.12-1.65c.05-.05.06-.12.12-.17L40.42,34.79a5.62,5.62,0,0,1,7.93,7.94L46.7,44.38H66.88a5.63,5.63,0,0,1,0,11.25H46.7l1.65,1.64a5.63,5.63,0,0,1-8,7.95L29.14,54a5.72,5.72,0,0,1-1.64-4,5.6,5.6,0,0,1,.43-2.14Z"/><rect class="cls-2" x="5" y="5" width="90" height="90"/></svg>