<svg id="Layer_1" data-name="Layer 1" xmlns="http://www.w3.org/2000/svg" viewBox="0 0 100 100"><defs><style>.cls-1{fill:#333;}.cls-2{fill:none;}</style></defs><title>TMexport</title><path id="download_1" data-name="download 1" class="cls-1" d="M10.63,95A5.63,5.63,0,0,1,5,89.38V78.13a5.63,5.63,0,1,1,11.25,0v5.62h67.5V78.13a5.63,5.63,0,1,1,11.25,0V89.38A5.63,5.63,0,0,1,89.37,95ZM46,70.85,29.15,54a5.62,5.62,0,0,1,8-7.95l7.28,7.27V10.63a5.63,5.63,0,1,1,11.25,0V53.3L62.89,46a5.63,5.63,0,0,1,8,7.95L54,70.86a5.63,5.63,0,0,1-7.95,0Z"/><rect class="cls-2" x="5" y="5" width="90" height="90"/></svg>