<svg id="Layer_1" data-name="Layer 1" xmlns="http://www.w3.org/2000/svg" viewBox="0 0 100 100"><defs><style>.cls-1{fill:#333;}.cls-2{fill:none;}</style></defs><title>TMflag</title><path id="Path_2209" data-name="Path 2209" class="cls-1" d="M10.53,95A5.53,5.53,0,0,1,5,89.47H5V10.53A5.53,5.53,0,0,1,10.53,5H89.47A5.53,5.53,0,0,1,95,10.53a5.43,5.43,0,0,1-.36,2L85.43,36.87,94.66,62a5.52,5.52,0,0,1-5.19,7.41H16.05v20A5.52,5.52,0,0,1,10.54,95Zm5.52-36.6H81.56L74.35,38.75a5.57,5.57,0,0,1,0-3.86l7.11-18.84H16.05Z"/><rect class="cls-2" x="5" y="5" width="90" height="90"/></svg>