<svg id="Layer_1" data-name="Layer 1" xmlns="http://www.w3.org/2000/svg" viewBox="0 0 100 100"><defs><style>.cls-1{fill:#333;}.cls-2{fill:none;}</style></defs><title>TMskipped</title><path id="location_1_minus" data-name="location 1 minus" class="cls-1" d="M40.15,93.23c-1.3-.55-27.9-11.21-34-37.61A40.06,40.06,0,0,1,42.45,6.06,39,39,0,0,1,83.64,42.75c0,.59,0,1.17.06,1.76a47.42,47.42,0,0,1-1.57,12.32A5.55,5.55,0,0,1,76.66,61a5.44,5.44,0,0,1-5.6-5.28,5.26,5.26,0,0,1,.17-1.48,38.06,38.06,0,0,0,1.23-9.73A27.87,27.87,0,0,0,44.23,17h-.48A29,29,0,0,0,16.26,47.45,29.89,29.89,0,0,0,17.36,54c5.34,20.56,27,29,27,29A5.49,5.49,0,0,1,45.49,93.9h-.05a7,7,0,0,1-1.11.11A11.48,11.48,0,0,1,40.15,93.23ZM66.81,83a5.5,5.5,0,0,1-.35-11H89.32a5.5,5.5,0,1,1,.35,11,2,2,0,0,1-.35,0ZM33.06,44.51a11.26,11.26,0,1,1,11.51,11h-.25a11.1,11.1,0,0,1-11.26-11Z"/><rect class="cls-2" x="5" y="5" width="90" height="90"/></svg>