<svg id="Layer_1" data-name="Layer 1" xmlns="http://www.w3.org/2000/svg" viewBox="0 0 100 100"><defs><style>.cls-1{fill:#333;}.cls-2{fill:none;}</style></defs><title>TMTime</title><path id="time_1" data-name="time 1" class="cls-1" d="M5,50A45,45,0,1,1,50,95,45,45,0,0,1,5,50Zm11.25,0A33.75,33.75,0,1,0,50,16.25,33.75,33.75,0,0,0,16.25,50ZM50,55.63A5.62,5.62,0,0,1,44.38,50V33.13a5.63,5.63,0,1,1,11.25,0V44.38H66.88a5.63,5.63,0,0,1,0,11.25Z"/><rect class="cls-2" x="5" y="5" width="90" height="90"/></svg>