<svg id="Layer_1" data-name="Layer 1" xmlns="http://www.w3.org/2000/svg" viewBox="0 0 100 100"><defs><style>.cls-1{fill:#333;}.cls-2{fill:none;}</style></defs><title>TMWP</title><g id="Group_4621" data-name="Group 4621"><path id="Path_2209" data-name="Path 2209" class="cls-1" d="M10.53,95A5.53,5.53,0,0,1,5,89.47H5V10.53A5.53,5.53,0,0,1,10.53,5H89.47A5.53,5.53,0,0,1,95,10.53a5.61,5.61,0,0,1-.35,2L85.43,36.87,94.66,62a5.53,5.53,0,0,1-3.28,7.09,5.65,5.65,0,0,1-1.91.34H16.05v20A5.53,5.53,0,0,1,10.53,95Zm5.52-36.6h65.5l-7.2-19.65a5.57,5.57,0,0,1,0-3.86l7.11-18.84H16.05Z"/><path id="Path_2210" data-name="Path 2210" class="cls-1" d="M38.42,54.11a5.59,5.59,0,0,1-4-1.64l-11.7-11.7a5.59,5.59,0,1,1,7.91-7.91l7.86,7.86L57.75,22.39a5.59,5.59,0,1,1,7.72,8.1L42.3,52.59A5.59,5.59,0,0,1,38.42,54.11Z"/></g><rect class="cls-2" x="5" y="5" width="90" height="90"/></svg>