<svg id="Layer_1" data-name="Layer 1" 
    xmlns="http://www.w3.org/2000/svg" viewBox="0 0 100 100">
    <defs>
        <style>.cls-1{fill:#333;}.cls-2{fill:none;}</style>
    </defs>
    <title>TMVehicle</title>
    <path id="bus" class="cls-1" d="M94.44,35.2,88.81,18.33a11.25,11.25,0,0,0-10.69-7.71H16.25A11.28,11.28,0,0,0,5,21.87v45a11.25,11.25,0,0,0,6.24,10.07,16.83,16.83,0,0,0,32.12,1.18H56.64a16.83,16.83,0,0,0,32.12-1.18A11.25,11.25,0,0,0,95,66.87V38.74A10.93,10.93,0,0,0,94.44,35.2ZM78.12,21.87l5.63,16.87H61.25V21.87ZM50,21.87V38.74H38.75V21.87Zm-33.75,0H27.5V38.74H16.25Zm0,28.12h67.5V60a16.8,16.8,0,0,0-27.11,6.92H43.36A16.79,16.79,0,0,0,16.25,60Zm5.62,22.5a5.63,5.63,0,1,1,5.63,5.63A5.63,5.63,0,0,1,21.87,72.49Zm45,0a5.63,5.63,0,1,1,5.63,5.63A5.63,5.63,0,0,1,66.87,72.49Z"/>
    <rect class="cls-2" x="5" y="5" width="90" height="90"/>
</svg>